PathFileType	4	(X/Y/Z)	OpenSim_Sub06_EMGStiffKnee_Accel.trc
DataRate	CameraRate	NumFrames	NumMarkers	Units	OrigDataRate	OrigDataStartFrame	OrigNumFrames
100	100	24	8	m	100	4075	5432
Frame#	Time	torso_imu_offset_imu	pelvis_imu_offset_imu	tibia_r_imu_offset_imu	femur_r_imu_offset_imu	tibia_l_imu_offset_imu	femur_l_imu_offset_imu	toes_r_imu_offset_imu	toes_l_imu_offset_imu
				X1	Y1	Z1	X2	Y2	Z2	X3	Y3	Z3	X4	Y4	Z4	X5	Y5	Z5	X6	Y6	Z6	X7	Y7	Z7	X8		Y8	Z8	

4075	40.74000000	8.64874400	1.88679700	5.63819500	7.81977500	-1.37101300	3.07362300	7.17023500	-1.13889700	1.24160800	7.70401600	-3.42063200	2.82286800	10.52509000	0.55557500	0.99962400	9.34826500	0.59530400	-2.71252500	14.55872100	10.54394000	-7.15165500	5.23948700	0.61238200	11.38092200
4076	40.75000000	8.49312000	1.82503500	5.71115700	7.94850700	-1.66972400	2.56257200	7.05502200	2.12175200	0.28057400	7.31543200	-2.42659900	2.97005000	10.18799700	1.77105400	1.24954300	9.04426400	0.41914100	-2.70123700	13.72672500	8.43056799	-4.42750600	4.84851500	0.67366100	11.43424200
4077	40.76000000	8.39338200	1.69483400	5.75557900	7.98130400	-2.07441800	2.33376000	6.65213800	3.54326700	1.57565200	7.00038700	-1.42019000	2.66484500	9.84420800	3.18202200	1.30591700	8.67352500	0.52331000	-2.84078900	6.80017400	-22.12356000	-11.38700700	5.19325200	0.81915400	11.46644200
4078	40.77000000	8.50392200	1.72570500	5.73946500	7.86831800	-2.22404600	3.04188700	6.64391000	4.08836200	3.24806900	6.69390200	-0.44161900	2.43897000	9.87972300	4.67168700	1.22020000	8.23422400	0.74199200	-3.10446100	6.69025801	18.65320700	28.18481701	5.32641700	0.48422100	11.38960000
4079	40.78000000	9.51682100	1.97888800	5.67396200	7.66763300	-1.86591300	5.44108900	7.90879900	5.69354600	6.94572500	7.30833900	0.05047200	3.22192000	10.68420600	6.08624200	1.19773200	7.88916500	1.10173100	-3.26914900	56.37807799	8.26213800	46.79894400	5.11640700	0.95572400	11.91343400
4080	40.79000000	12.28915000	2.21837900	5.65511900	7.83864200	-0.31215300	9.51495900	14.09865600	8.71416400	16.55751800	12.16791600	0.34691000	3.77851000	12.44868800	7.34953300	1.44617500	8.08917400	1.90439400	-3.26859700	-21.02038300	37.88938000	4.78033200	4.43734500	1.92125500	12.73708000
4081	40.80000000	15.58127100	1.92649700	5.84554600	11.07079400	2.65589300	11.44805500	32.02616300	8.03751000	13.75363500	25.98007400	-2.18419200	0.94637700	14.47658500	8.40988400	2.82264300	9.15127800	2.98307000	-2.93560000	36.17414600	-26.36917800	10.00729700	3.88173100	3.62130300	13.83049400
4082	40.81000000	14.26219500	0.56455100	7.88621600	18.79192900	5.01764000	9.29835800	31.53472800	-4.32113500	5.85838300	33.10433000	-6.60222800	-4.69713800	15.07789400	7.98943800	4.68454700	10.18092300	3.64606400	-2.59858000	-11.46760700	1.96640901	12.94870400	4.01413200	3.64852900	13.57398600
4083	40.82000000	13.43559100	-0.73187300	9.20028200	21.99852400	8.00360800	12.39347700	16.25592800	-6.18437300	7.66859500	24.31760500	-2.23660300	-3.33783200	13.69462100	6.25973100	6.09580100	9.94491900	3.65755900	-1.88565500	15.62290500	1.95794900	9.62250800	4.39996900	3.51187500	14.03540300
4084	40.83000000	13.21358500	-2.00738200	9.47245700	12.85785800	6.50612000	11.61682600	8.19126700	-3.14750000	9.11128900	13.49041200	1.98908800	2.67072700	11.86849600	3.55499300	8.40559800	9.71682700	4.19114300	-0.93382300	7.61893200	2.75647800	9.24227200	3.98392300	4.40056300	14.23775200
4085	40.84000000	11.90138600	-3.43066200	7.98062800	8.74385600	1.04590900	6.96536200	5.06227000	1.96718700	2.25780800	6.58696600	1.55371400	3.62383600	10.57634600	-0.23355700	9.66812100	10.53252900	3.97570700	-0.53513800	4.58632700	-0.76009100	8.58190100	4.49601200	4.38392100	15.37606000
4086	40.85000000	10.55168900	-4.21263300	6.11845300	7.09296900	-1.82165200	5.48182600	2.29355400	6.40268900	-3.55925700	3.27363300	-0.81826000	0.78974500	10.91518200	-4.13971200	7.77790300	12.58956700	2.63575500	-1.13681600	3.45205500	-3.41221500	8.27033700	4.14364300	1.07235500	15.70546900
4087	40.86000000	10.14915600	-4.13780400	5.24247300	6.66847400	-3.89714200	5.32956700	0.65918800	7.22622300	-6.76855900	2.51408400	-0.40346600	0.16684400	12.55901700	-5.84671100	3.12911100	15.30489200	1.52802500	-2.40203000	3.62685100	-5.16006000	8.06186600	4.41461400	-2.55015600	15.41054600
4088	40.87000000	9.34176000	-3.51746300	4.73224800	6.95133900	-4.20485600	5.13749400	4.00067100	7.73937400	-7.43216000	2.15534400	1.55255600	0.70889500	13.67255700	-5.45031800	-0.48822300	15.20992800	0.60031300	-2.42241700	3.93765300	-5.86238400	7.65581800	6.56177700	-5.87843300	14.12785600
4089	40.88000000	8.56870100	-2.87111700	4.53815000	7.58701100	-4.07508400	4.52725400	8.60835800	9.03353400	-4.53968900	2.03879100	1.85859700	0.26158400	13.79740200	-6.41644000	-1.58112600	13.50056800	0.19411300	-0.48768100	5.78512900	-5.59405700	6.83706700	7.27438100	0.65994600	13.93226100
4090	40.89000000	8.69839000	-2.01579200	4.28492900	8.49566500	-3.81768800	4.45684400	11.88771000	12.12501700	-4.43733100	3.86574200	0.63266400	-1.37330700	12.63252000	-8.07942800	-0.22489500	12.71805700	0.08258800	1.43585700	5.90500700	-5.37118100	6.97698900	7.59434400	8.40443700	17.31797800
4091	40.90000000	9.33967300	-0.93283000	4.02316100	9.56268900	-2.74664800	4.85748700	11.36171200	14.07153500	-4.09003700	7.84748600	0.33229900	-3.20129800	10.06792200	-9.05189500	1.40004700	12.48570000	-0.62617800	2.30296600	5.23749400	-2.81728500	8.14177500	9.26853200	8.38650900	14.77761800
4092	40.91000000	9.78553500	-0.19927500	4.34140200	9.13842400	-1.19756800	5.20518900	9.99040900	11.95645500	1.55066000	11.65810900	0.58545400	-4.29185000	7.25724100	-9.18794900	1.96578600	12.25594600	-1.75728000	2.31994900	4.88870600	-2.88160800	8.44935400	11.25333200	6.43640600	15.60214400
4093	40.92000000	9.69945600	-0.16914900	4.94985100	8.11785000	0.42763400	5.35249000	9.36539000	7.87465900	4.36210400	16.67874000	-2.56117400	-5.47348500	5.27031000	-8.79843300	1.82396400	12.22581200	-3.21063500	1.76620700	3.77850400	-1.27222200	9.21350500	-1.04497600	5.03532000	21.64788700
4094	40.93000000	9.30091200	-0.82690000	5.45545100	7.89375300	1.74169500	5.75409200	9.18914000	6.56312300	3.29931900	13.70604000	-5.66321900	-6.03564900	4.10166600	-8.48167300	1.62090400	12.31806900	-4.80184800	1.03960500	4.30253500	-1.57832700	9.30342200	9.63734100	2.25684600	24.51711500
4095	40.94000000	8.88585700	-1.42011000	5.54867100	8.35322000	2.39182300	6.34310200	9.28137900	4.93583000	3.32678800	7.87676000	-5.40361200	-2.58471200	2.88030400	-7.26498200	1.91158900	11.69502500	-5.52725600	-0.06138700	3.99443900	-1.35712900	9.46771700	-4.50610500	5.52677000	17.01771300
4096	40.95000000	8.64456800	-2.00671100	5.56781500	8.94801400	2.63252100	6.87025600	9.62236600	0.58904200	3.28265000	6.81113800	-3.12557300	0.88876100	2.01881400	-5.75949400	3.40667100	10.50687200	-4.98391800	-1.29705300	4.22277500	-1.40862800	9.10887400	-10.97680900	9.15543800	12.39703600
4097	40.96000000	8.46187500	-2.30325100	5.61493400	9.48950600	2.52399800	6.81336300	10.60337400	-4.65226500	2.57276800	8.09976900	-2.16480900	1.63251700	1.90971700	-4.18992200	5.04303000	9.57442000	-3.21766000	-1.96893300	4.12212200	-2.18530600	8.85915600	-4.48969900	5.77278800	13.13639100
4098	40.97000000	8.37454200	-2.29168300	5.93354200	9.50671600	1.89279000	6.16313800	11.75345300	-7.24571800	1.40318100	9.89537600	-1.86085800	1.28488700	1.11540400	-3.15511200	6.09059600	9.44219000	-0.84939200	-1.79330500	4.50522900	-2.24612400	8.62055100	-2.78266700	5.15363200	14.22143700
